<svg width="153" height="54" viewBox="0 0 153 54" fill="none" xmlns="http://www.w3.org/2000/svg">
<path d="M60.5043 3.81818H62.7614L65.7841 11.196H65.9034L68.9261 3.81818H71.1832V14H69.4134V7.00497H69.3189L66.505 13.9702H65.1825L62.3686 6.99006H62.2741V14H60.5043V3.81818ZM76.4432 14.1491C75.6974 14.1491 75.0511 13.9851 74.5043 13.657C73.9574 13.3288 73.5331 12.8698 73.2315 12.2798C72.9332 11.6899 72.7841 11.0005 72.7841 10.2116C72.7841 9.42282 72.9332 8.73177 73.2315 8.13849C73.5331 7.54522 73.9574 7.08452 74.5043 6.75639C75.0511 6.42827 75.6974 6.2642 76.4432 6.2642C77.1889 6.2642 77.8352 6.42827 78.3821 6.75639C78.929 7.08452 79.3516 7.54522 79.6499 8.13849C79.9515 8.73177 80.1023 9.42282 80.1023 10.2116C80.1023 11.0005 79.9515 11.6899 79.6499 12.2798C79.3516 12.8698 78.929 13.3288 78.3821 13.657C77.8352 13.9851 77.1889 14.1491 76.4432 14.1491ZM76.4531 12.7074C76.8575 12.7074 77.1955 12.5964 77.4673 12.3743C77.7391 12.1489 77.9413 11.8473 78.0739 11.4695C78.2098 11.0916 78.2777 10.6707 78.2777 10.2067C78.2777 9.73935 78.2098 9.31676 78.0739 8.93892C77.9413 8.55777 77.7391 8.2545 77.4673 8.02912C77.1955 7.80374 76.8575 7.69105 76.4531 7.69105C76.0388 7.69105 75.6941 7.80374 75.419 8.02912C75.1473 8.2545 74.9434 8.55777 74.8075 8.93892C74.675 9.31676 74.6087 9.73935 74.6087 10.2067C74.6087 10.6707 74.675 11.0916 74.8075 11.4695C74.9434 11.8473 75.1473 12.1489 75.419 12.3743C75.6941 12.5964 76.0388 12.7074 76.4531 12.7074ZM87.6653 8.3821L86.0247 8.56108C85.9783 8.39536 85.8971 8.23958 85.7811 8.09375C85.6684 7.94792 85.5159 7.83026 85.3237 7.74077C85.1315 7.65128 84.8961 7.60653 84.6177 7.60653C84.2432 7.60653 83.9283 7.68774 83.6731 7.85014C83.4212 8.01255 83.2969 8.22301 83.3002 8.48153C83.2969 8.7036 83.3781 8.88423 83.5439 9.02344C83.7129 9.16264 83.9913 9.27699 84.3791 9.36648L85.6816 9.64489C86.4042 9.80066 86.9411 10.0476 87.2924 10.3857C87.6471 10.7237 87.8261 11.1662 87.8294 11.7131C87.8261 12.1937 87.6852 12.6179 87.4068 12.9858C87.1317 13.3504 86.7489 13.6354 86.2583 13.8409C85.7678 14.0464 85.2044 14.1491 84.568 14.1491C83.6333 14.1491 82.881 13.9536 82.3109 13.5625C81.7408 13.1681 81.4011 12.6196 81.2917 11.9169L83.0467 11.7479C83.1262 12.0926 83.2953 12.3527 83.5538 12.5284C83.8123 12.7041 84.1487 12.7919 84.563 12.7919C84.9906 12.7919 85.3336 12.7041 85.5922 12.5284C85.854 12.3527 85.9849 12.1357 85.9849 11.8771C85.9849 11.6584 85.9004 11.4777 85.7314 11.3352C85.5656 11.1927 85.3071 11.0833 84.9558 11.0071L83.6532 10.7337C82.9208 10.5812 82.3788 10.3243 82.0275 9.96307C81.6762 9.59848 81.5022 9.13778 81.5055 8.58097C81.5022 8.11032 81.6298 7.70265 81.8883 7.35795C82.1502 7.00994 82.5131 6.74148 82.9771 6.55256C83.4444 6.36032 83.983 6.2642 84.5929 6.2642C85.4877 6.2642 86.1921 6.45478 86.7058 6.83594C87.2228 7.21709 87.5427 7.73248 87.6653 8.3821ZM93.1266 6.36364V7.75568H88.7367V6.36364H93.1266ZM89.8205 4.53409H91.6202V11.7031C91.6202 11.9451 91.6567 12.1307 91.7296 12.2599C91.8058 12.3859 91.9052 12.4721 92.0279 12.5185C92.1505 12.5649 92.2864 12.5881 92.4355 12.5881C92.5482 12.5881 92.651 12.5798 92.7438 12.5632C92.8399 12.5466 92.9128 12.5317 92.9625 12.5185L93.2658 13.9254C93.1697 13.9586 93.0321 13.995 92.8532 14.0348C92.6775 14.0746 92.4621 14.0978 92.2069 14.1044C91.7561 14.1177 91.3501 14.0497 90.9888 13.9006C90.6275 13.7481 90.3408 13.5128 90.1287 13.1946C89.9199 12.8764 89.8172 12.4787 89.8205 12.0014V4.53409ZM98.1044 16.8636V6.36364H99.8743V7.62642H99.9787C100.071 7.44081 100.202 7.24361 100.371 7.0348C100.54 6.82268 100.769 6.64205 101.058 6.4929C101.346 6.34044 101.714 6.2642 102.161 6.2642C102.751 6.2642 103.283 6.41501 103.757 6.71662C104.234 7.01491 104.612 7.45739 104.891 8.04403C105.172 8.62737 105.313 9.34328 105.313 10.1918C105.313 11.0303 105.176 11.7429 104.901 12.3295C104.625 12.9162 104.251 13.3636 103.777 13.6719C103.303 13.9801 102.766 14.1342 102.166 14.1342C101.729 14.1342 101.366 14.0613 101.077 13.9155C100.789 13.7696 100.557 13.594 100.381 13.3885C100.209 13.1797 100.075 12.9825 99.9787 12.7969H99.9041V16.8636H98.1044ZM99.8693 10.1818C99.8693 10.6757 99.9389 11.1082 100.078 11.4794C100.221 11.8506 100.424 12.1406 100.69 12.3494C100.958 12.5549 101.283 12.6577 101.664 12.6577C102.062 12.6577 102.395 12.5516 102.663 12.3395C102.932 12.1241 103.134 11.8307 103.27 11.4595C103.409 11.085 103.479 10.6591 103.479 10.1818C103.479 9.70786 103.411 9.28693 103.275 8.91903C103.139 8.55114 102.937 8.26278 102.668 8.05398C102.4 7.84517 102.065 7.74077 101.664 7.74077C101.28 7.74077 100.953 7.84186 100.685 8.04403C100.416 8.24621 100.212 8.52959 100.073 8.89418C99.9373 9.25876 99.8693 9.68797 99.8693 10.1818ZM110.185 14.1491C109.44 14.1491 108.793 13.9851 108.246 13.657C107.7 13.3288 107.275 12.8698 106.974 12.2798C106.675 11.6899 106.526 11.0005 106.526 10.2116C106.526 9.42282 106.675 8.73177 106.974 8.13849C107.275 7.54522 107.7 7.08452 108.246 6.75639C108.793 6.42827 109.44 6.2642 110.185 6.2642C110.931 6.2642 111.577 6.42827 112.124 6.75639C112.671 7.08452 113.094 7.54522 113.392 8.13849C113.694 8.73177 113.844 9.42282 113.844 10.2116C113.844 11.0005 113.694 11.6899 113.392 12.2798C113.094 12.8698 112.671 13.3288 112.124 13.657C111.577 13.9851 110.931 14.1491 110.185 14.1491ZM110.195 12.7074C110.6 12.7074 110.938 12.5964 111.21 12.3743C111.481 12.1489 111.683 11.8473 111.816 11.4695C111.952 11.0916 112.02 10.6707 112.02 10.2067C112.02 9.73935 111.952 9.31676 111.816 8.93892C111.683 8.55777 111.481 8.2545 111.21 8.02912C110.938 7.80374 110.6 7.69105 110.195 7.69105C109.781 7.69105 109.436 7.80374 109.161 8.02912C108.889 8.2545 108.686 8.55777 108.55 8.93892C108.417 9.31676 108.351 9.73935 108.351 10.2067C108.351 10.6707 108.417 11.0916 108.55 11.4695C108.686 11.8473 108.889 12.1489 109.161 12.3743C109.436 12.5964 109.781 12.7074 110.195 12.7074ZM115.372 16.8636V6.36364H117.142V7.62642H117.246C117.339 7.44081 117.47 7.24361 117.639 7.0348C117.808 6.82268 118.037 6.64205 118.325 6.4929C118.613 6.34044 118.981 6.2642 119.429 6.2642C120.019 6.2642 120.551 6.41501 121.025 6.71662C121.502 7.01491 121.88 7.45739 122.158 8.04403C122.44 8.62737 122.581 9.34328 122.581 10.1918C122.581 11.0303 122.443 11.7429 122.168 12.3295C121.893 12.9162 121.519 13.3636 121.045 13.6719C120.571 13.9801 120.034 14.1342 119.434 14.1342C118.996 14.1342 118.633 14.0613 118.345 13.9155C118.057 13.7696 117.825 13.594 117.649 13.3885C117.477 13.1797 117.342 12.9825 117.246 12.7969H117.172V16.8636H115.372ZM117.137 10.1818C117.137 10.6757 117.206 11.1082 117.346 11.4794C117.488 11.8506 117.692 12.1406 117.957 12.3494C118.226 12.5549 118.55 12.6577 118.932 12.6577C119.329 12.6577 119.662 12.5516 119.931 12.3395C120.199 12.1241 120.402 11.8307 120.537 11.4595C120.677 11.085 120.746 10.6591 120.746 10.1818C120.746 9.70786 120.678 9.28693 120.542 8.91903C120.407 8.55114 120.204 8.26278 119.936 8.05398C119.667 7.84517 119.333 7.74077 118.932 7.74077C118.547 7.74077 118.221 7.84186 117.952 8.04403C117.684 8.24621 117.48 8.52959 117.341 8.89418C117.205 9.25876 117.137 9.68797 117.137 10.1818ZM128.989 10.7884V6.36364H130.789V14H129.044V12.6428H128.964C128.792 13.0703 128.509 13.42 128.114 13.6918C127.723 13.9635 127.241 14.0994 126.667 14.0994C126.167 14.0994 125.724 13.9884 125.34 13.7663C124.959 13.541 124.661 13.2145 124.445 12.7869C124.23 12.3561 124.122 11.8357 124.122 11.2259V6.36364H125.922V10.9474C125.922 11.4313 126.054 11.8158 126.319 12.1009C126.585 12.3859 126.933 12.5284 127.363 12.5284C127.629 12.5284 127.885 12.4638 128.134 12.3345C128.383 12.2053 128.586 12.013 128.746 11.7578C128.908 11.4993 128.989 11.1761 128.989 10.7884ZM134.439 3.81818V14H132.64V3.81818H134.439ZM138.487 14.1541C138.003 14.1541 137.568 14.0679 137.18 13.8956C136.795 13.7199 136.49 13.4614 136.265 13.12C136.043 12.7786 135.932 12.3577 135.932 11.8572C135.932 11.4264 136.012 11.0701 136.171 10.7884C136.33 10.5066 136.547 10.2812 136.822 10.1122C137.097 9.94318 137.407 9.81558 137.752 9.7294C138.1 9.63991 138.459 9.57528 138.83 9.53551C139.278 9.48911 139.641 9.44768 139.919 9.41122C140.198 9.37145 140.4 9.31179 140.526 9.23224C140.655 9.14938 140.72 9.02178 140.72 8.84943V8.8196C140.72 8.44508 140.609 8.15507 140.387 7.94957C140.164 7.74408 139.845 7.64134 139.427 7.64134C138.986 7.64134 138.637 7.73745 138.378 7.92969C138.123 8.12192 137.95 8.34896 137.861 8.6108L136.181 8.37216C136.313 7.90814 136.532 7.52036 136.837 7.20881C137.142 6.89394 137.515 6.65862 137.955 6.50284C138.396 6.34375 138.883 6.2642 139.417 6.2642C139.785 6.2642 140.151 6.30729 140.516 6.39347C140.88 6.47964 141.213 6.62216 141.515 6.82102C141.817 7.01657 142.059 7.28338 142.241 7.62145C142.427 7.95952 142.519 8.3821 142.519 8.8892V14H140.789V12.951H140.73C140.62 13.1631 140.466 13.362 140.267 13.5476C140.072 13.7299 139.825 13.8774 139.526 13.9901C139.231 14.0994 138.885 14.1541 138.487 14.1541ZM138.955 12.8317C139.316 12.8317 139.629 12.7604 139.894 12.6179C140.16 12.4721 140.363 12.2798 140.506 12.0412C140.652 11.8026 140.725 11.5424 140.725 11.2607V10.3608C140.668 10.4072 140.572 10.4503 140.436 10.4901C140.304 10.5298 140.155 10.5646 139.989 10.5945C139.823 10.6243 139.659 10.6508 139.497 10.674C139.334 10.6972 139.193 10.7171 139.074 10.7337C138.806 10.7701 138.565 10.8298 138.353 10.9126C138.141 10.9955 137.974 11.1115 137.851 11.2607C137.728 11.4065 137.667 11.5954 137.667 11.8274C137.667 12.1589 137.788 12.4091 138.03 12.5781C138.272 12.7472 138.58 12.8317 138.955 12.8317ZM144.329 14V6.36364H146.074V7.63636H146.154C146.293 7.19555 146.531 6.85582 146.869 6.61719C147.211 6.37524 147.6 6.25426 148.038 6.25426C148.137 6.25426 148.248 6.25923 148.371 6.26918C148.497 6.2758 148.601 6.2874 148.684 6.30398V7.95952C148.608 7.933 148.487 7.9098 148.321 7.88991C148.159 7.86671 148.001 7.85511 147.849 7.85511C147.521 7.85511 147.226 7.92637 146.964 8.06889C146.705 8.2081 146.502 8.40199 146.352 8.65057C146.203 8.89915 146.129 9.18584 146.129 9.51065V14H144.329ZM152.082 3.81818L151.918 11.0071H150.317L150.158 3.81818H152.082ZM151.118 14.1094C150.816 14.1094 150.558 14.0033 150.342 13.7912C150.13 13.5791 150.024 13.3205 150.024 13.0156C150.024 12.7173 150.13 12.4621 150.342 12.25C150.558 12.0379 150.816 11.9318 151.118 11.9318C151.413 11.9318 151.668 12.0379 151.883 12.25C152.102 12.4621 152.211 12.7173 152.211 13.0156C152.211 13.2178 152.16 13.4018 152.057 13.5675C151.958 13.7332 151.825 13.8658 151.66 13.9652C151.497 14.0613 151.317 14.1094 151.118 14.1094Z" fill="#010101"/>
<path d="M9.22056 50.4485C9.06321 51.2619 9.595 52.0488 10.4084 52.2061C11.2217 52.3635 12.0086 51.8317 12.166 51.0184L9.22056 50.4485ZM50.5841 11.7912C51.405 11.6802 51.9806 10.9247 51.8696 10.1038C51.7586 9.28282 51.0032 8.70727 50.1822 8.81824L50.5841 11.7912ZM4.78725 40.3308C4.36038 39.6208 3.43878 39.3913 2.7288 39.8182C2.01882 40.2451 1.78931 41.1667 2.21618 41.8766L4.78725 40.3308ZM8.9767 50.2098L7.69117 50.9828L7.69189 50.984L8.9767 50.2098ZM12.5932 51.2606L11.9803 49.8916L11.979 49.8921L12.5932 51.2606ZM23.5123 48.0155C24.2684 47.677 24.6069 46.7897 24.2684 46.0336C23.9299 45.2774 23.0425 44.9389 22.2864 45.2774L23.5123 48.0155ZM10.6933 50.7334C12.166 51.0184 12.1659 51.0187 12.1658 51.019C12.1658 51.0189 12.1658 51.0192 12.1658 51.0192C12.1658 51.0192 12.1658 51.0189 12.166 51.0184C12.1662 51.0173 12.1666 51.0152 12.1672 51.012C12.1684 51.0058 12.1705 50.9953 12.1735 50.9808C12.1794 50.9517 12.1887 50.9064 12.2016 50.8456C12.2274 50.7239 12.2676 50.5403 12.3233 50.3008C12.4349 49.8216 12.6088 49.1193 12.8551 48.2421C13.3481 46.4863 14.1291 44.0371 15.2773 41.2782C17.5833 35.7375 21.3236 29.0615 27.0838 24.2002L25.1489 21.9076C18.8763 27.2013 14.905 34.3651 12.5076 40.1255C11.3042 43.0171 10.4856 45.5837 9.96684 47.4311C9.7073 48.3554 9.52235 49.1015 9.40152 49.6204C9.34109 49.8799 9.29667 50.0827 9.26695 50.2227C9.25209 50.2927 9.24091 50.3471 9.23323 50.385C9.22939 50.4039 9.22643 50.4187 9.22432 50.4294C9.22327 50.4347 9.22243 50.4389 9.22181 50.4421C9.22149 50.4437 9.22123 50.4451 9.22103 50.4461C9.22092 50.4467 9.22081 50.4473 9.22075 50.4475C9.22065 50.4481 9.22056 50.4485 10.6933 50.7334ZM27.0838 24.2002C38.8964 14.2311 48.2848 12.102 50.5841 11.7912L50.1822 8.81824C47.3237 9.20465 37.402 11.5666 25.1489 21.9076L27.0838 24.2002ZM2.21618 41.8766L7.69117 50.9828L10.2622 49.4369L4.78725 40.3308L2.21618 41.8766ZM7.69189 50.984C8.83415 52.8798 11.2204 53.5209 13.2074 52.6291L11.979 49.8921C11.2779 50.2068 10.5661 49.9412 10.2615 49.4357L7.69189 50.984ZM13.2061 52.6297L23.5123 48.0155L22.2864 45.2774L11.9803 49.8916L13.2061 52.6297Z" fill="#010101"/>
</svg>
