<svg width="22" height="24" viewBox="0 0 22 24" fill="none" xmlns="http://www.w3.org/2000/svg">
<g clip-path="url(#clip0_1_22334)">
<path d="M10.1437 11.4417L0.0947876 21.9698C0.207636 22.3698 0.410427 22.7386 0.687659 23.0481C0.964892 23.3576 1.30923 23.5997 1.69434 23.7558C2.07945 23.9118 2.49515 23.9778 2.90966 23.9485C3.32416 23.9193 3.7265 23.7957 4.08591 23.5872L15.3928 17.1475L10.1437 11.4417Z" fill="#EA4335"/>
<path d="M20.3048 9.65206L15.4153 6.85144L9.91162 11.6811L15.4377 17.1324L20.29 14.3618C20.7198 14.1367 21.0799 13.7983 21.3311 13.3832C21.5823 12.9681 21.7151 12.4921 21.7151 12.0069C21.7151 11.5217 21.5823 11.0457 21.3311 10.6306C21.0799 10.2155 20.7198 9.87706 20.29 9.65198L20.3048 9.65206Z" fill="#FBBC04"/>
<path d="M0.094742 1.99182C0.0340375 2.21638 0.00380202 2.44808 0.00484801 2.6807V21.2809C0.00544743 21.5134 0.035655 21.7449 0.094742 21.9698L10.4881 11.7112L0.094742 1.99182Z" fill="#4285F4"/>
<path d="M10.2185 11.9808L15.4153 6.85154L4.12339 0.381885C3.69854 0.133083 3.21534 0.00131666 2.723 5.20116e-06C1.5012 -0.00236936 0.427056 0.808542 0.0947876 1.98437L10.2185 11.9808Z" fill="#34A853"/>
</g>
<defs>
<clipPath id="clip0_1_22334">
<rect width="21.72" height="24" fill="white"/>
</clipPath>
</defs>
</svg>
