<svg width="25" height="24" viewBox="0 0 25 24" fill="none" xmlns="http://www.w3.org/2000/svg">
<g clip-path="url(#clip0_1_22343)">
<path d="M5.976 0H19.464C22.3669 0 24.72 2.35312 24.72 5.256V18.744C24.72 21.6469 22.3669 24 19.464 24H5.976C3.07313 24 0.720001 21.6469 0.720001 18.744V5.256C0.720001 2.35312 3.07313 0 5.976 0Z" fill="url(#paint0_linear_1_22343)"/>
<path d="M8.41145 17.4197L8.4137 17.4205L7.59311 18.8417C7.29358 19.3606 6.6302 19.5383 6.11139 19.2388C5.59258 18.9392 5.41483 18.2759 5.71436 17.7571L6.31886 16.7101L6.37689 16.6096C6.48048 16.4607 6.73614 16.2036 7.24754 16.252C7.24754 16.252 8.45101 16.3826 8.53811 17.0081C8.53811 17.0081 8.54992 17.2139 8.41145 17.4197ZM20.0499 13.7897H17.491C17.3168 13.778 17.2407 13.7158 17.2107 13.6796L17.2089 13.6763L14.4698 8.93199L14.4662 8.93433L14.3019 8.69883C14.0327 8.28708 13.6052 9.34008 13.6052 9.34008C13.0947 10.5135 13.6777 11.8474 13.8808 12.2506L17.6854 18.8403C17.9848 19.3591 18.6482 19.5369 19.1671 19.2373C19.6858 18.9377 19.8637 18.2744 19.564 17.7556L18.6128 16.1078C18.5943 16.0679 18.5622 15.9595 18.7573 15.959H20.0499C20.6489 15.959 21.1345 15.4734 21.1345 14.8743C21.1345 14.2753 20.6489 13.7897 20.0499 13.7897ZM15.0798 15.2641C15.0798 15.2641 15.2164 15.9589 14.6879 15.9589H5.22864C4.62958 15.9589 4.14395 15.4733 4.14395 14.8742C4.14395 14.2752 4.62958 13.7896 5.22864 13.7896H7.66051C8.05314 13.7669 8.14614 13.5402 8.14614 13.5402L8.14839 13.5413L11.3228 8.04305L11.3218 8.04287C11.3797 7.93665 11.3315 7.83624 11.3231 7.8204L10.2747 6.00455C9.9752 5.48583 10.153 4.82237 10.6718 4.52293C11.1906 4.22349 11.854 4.40105 12.1535 4.91987L12.6397 5.76202L13.125 4.92137C13.4245 4.40265 14.0879 4.2248 14.6067 4.52443C15.1255 4.82405 15.3033 5.48724 15.0038 6.00605L10.5865 13.657C10.5671 13.7036 10.5612 13.7767 10.705 13.7896H13.3453L13.3459 13.8153C13.3459 13.8153 14.872 13.8391 15.0798 15.2641Z" fill="white"/>
</g>
<defs>
<linearGradient id="paint0_linear_1_22343" x1="1200.72" y1="0" x2="1200.72" y2="2400" gradientUnits="userSpaceOnUse">
<stop stop-color="#17C9FB"/>
<stop offset="1" stop-color="#1A74E8"/>
</linearGradient>
<clipPath id="clip0_1_22343">
<rect width="24" height="24" fill="white" transform="translate(0.720001)"/>
</clipPath>
</defs>
</svg>
