<svg width="1152" height="48" viewBox="0 0 1152 48" fill="none" xmlns="http://www.w3.org/2000/svg">
<path d="M131 4C119.954 4 111 12.9543 111 24.0001C111 35.0458 119.954 44.0002 131 44.0002C140.91 44.0002 149.137 36.7925 150.724 27.3334H150.58C149.1 33.0842 143.88 37.3335 137.667 37.3335C130.303 37.3335 124.333 31.3639 124.333 24.0001C124.333 16.6362 130.303 10.6667 137.667 10.6667C143.88 10.6667 149.1 14.9159 150.58 20.6667H150.724C149.137 11.2076 140.91 4 131 4Z" fill="#A4BCFD"/>
<path d="M111 24.0001C111 12.9543 119.954 4 131 4C140.91 4 149.137 11.2076 150.724 20.6667H137.247C135.767 14.9159 130.546 10.6667 124.333 10.6667C116.97 10.6667 111 16.6363 111 24.0001Z" fill="#3538CD"/>
<path d="M111 24.0002C111 35.0459 119.954 44.0002 131 44.0002C140.91 44.0002 149.137 36.7926 150.724 27.3335H137.247C135.767 33.0843 130.546 37.3336 124.333 37.3336C116.97 37.3336 111 31.364 111 24.0002Z" fill="#3538CD"/>
<path fill-rule="evenodd" clip-rule="evenodd" d="M176.817 20.7018H180.75L180.732 20.5867C180.085 16.3512 175.915 13.3098 171.208 13.3098C165.351 13.3098 160.9 17.8514 160.9 23.8208C160.9 29.8186 165.351 34.3898 171.208 34.3898C176.037 34.3898 179.968 31.3152 180.79 26.8549L180.811 26.7368H176.843L176.824 26.8128C176.228 29.227 173.924 30.8838 171.208 30.8838C167.471 30.8838 164.609 27.832 164.609 23.8208C164.609 19.8394 167.47 16.8158 171.208 16.8158C173.897 16.8158 176.144 18.3879 176.796 20.6298L176.817 20.7018Z" fill="#0C111D"/>
<path fill-rule="evenodd" clip-rule="evenodd" d="M197.375 34.0998V19.7188H193.927V22.0112C192.873 20.3716 191.172 19.4288 188.981 19.4288C185.119 19.4288 182.095 22.7588 182.095 26.8948C182.095 31.0303 185.118 34.3898 188.981 34.3898C191.172 34.3898 192.873 33.4471 193.927 31.8074V34.0998H197.375ZM189.677 31.1158C187.326 31.1158 185.485 29.2475 185.485 26.8948C185.485 24.5716 187.325 22.7028 189.677 22.7028C192.087 22.7028 193.898 24.5145 193.898 26.8948C193.898 29.3046 192.086 31.1158 189.677 31.1158Z" fill="#0C111D"/>
<path fill-rule="evenodd" clip-rule="evenodd" d="M204.778 28.6058V22.9928H208.49V19.7188H204.778V15.9198H201.33V19.7188H198.633V22.9928H201.33V28.6638C201.33 30.4811 201.858 31.8863 202.795 32.8375C203.731 33.7887 205.064 34.2738 206.65 34.2738C207.177 34.2738 207.91 34.2155 208.413 34.0972L208.49 34.079V30.8819L208.364 30.9163C208.057 31 207.69 31.0288 207.346 31.0288C206.577 31.0288 205.937 30.8505 205.49 30.4658C205.047 30.0834 204.778 29.4836 204.778 28.6058Z" fill="#0C111D"/>
<path fill-rule="evenodd" clip-rule="evenodd" d="M224.053 34.0998V19.7188H220.605V22.0112C219.552 20.3716 217.85 19.4288 215.659 19.4288C211.797 19.4288 208.773 22.7588 208.773 26.8948C208.773 31.0303 211.797 34.3898 215.659 34.3898C217.85 34.3898 219.552 33.4471 220.605 31.8074V34.0998H224.053ZM216.355 31.1158C214.005 31.1158 212.163 29.2475 212.163 26.8948C212.163 24.5716 214.004 22.7028 216.355 22.7028C218.766 22.7028 220.576 24.5145 220.576 26.8948C220.576 29.3046 218.765 31.1158 216.355 31.1158Z" fill="#0C111D"/>
<path fill-rule="evenodd" clip-rule="evenodd" d="M230.094 34.0998V13.5998H226.675V34.0998H230.094Z" fill="#0C111D"/>
<path fill-rule="evenodd" clip-rule="evenodd" d="M251.727 34.6538H248.309L248.313 34.7582C248.402 36.7856 249.493 38.1043 250.916 38.9117C252.335 39.7166 254.086 40.0158 255.518 40.0158C257.597 40.0158 259.426 39.3937 260.738 38.2624C262.052 37.1299 262.839 35.4924 262.839 33.4778V32.6788H262.868V19.7188H259.42V21.934C258.366 20.3452 256.664 19.4288 254.474 19.4288C250.615 19.4288 247.588 22.6691 247.588 26.6918C247.588 30.714 250.614 33.9838 254.474 33.9838C256.664 33.9838 258.366 33.0675 259.42 31.4544L259.391 33.5938C259.391 35.7002 257.623 37.1188 255.431 37.1188C254.429 37.1188 253.521 36.8968 252.855 36.4883C252.192 36.0811 251.773 35.4918 251.732 34.7483L251.727 34.6538ZM255.17 30.7968C252.817 30.7968 250.978 28.9553 250.978 26.6918C250.978 24.4293 252.816 22.6158 255.17 22.6158C257.583 22.6158 259.391 24.3722 259.391 26.6918C259.391 29.0124 257.582 30.7968 255.17 30.7968Z" fill="#0C111D"/>
<path fill-rule="evenodd" clip-rule="evenodd" d="M246.22 19.5639L246.268 19.4298H242.53L242.5 19.4694C241.747 20.4612 240.557 21.0866 239.209 21.0866C237.843 21.0866 236.666 20.4612 235.927 19.4701L235.897 19.4298H232.175L232.223 19.5636C233.252 22.4301 235.938 24.3896 239.209 24.3896C242.479 24.3896 245.182 22.4304 246.22 19.5639Z" fill="#0C111D"/>
<path fill-rule="evenodd" clip-rule="evenodd" d="M243.09 34.3898H246.54L246.555 34.3072C246.634 33.8606 246.675 33.3983 246.675 32.9236C246.675 28.6634 243.411 25.4286 239.209 25.4286C235.006 25.4286 231.772 28.6639 231.772 32.9236C231.772 33.3982 231.812 33.8605 231.891 34.3071L231.905 34.3898H235.349L235.308 34.2595C235.175 33.843 235.104 33.3943 235.104 32.9236C235.104 30.5402 236.889 28.7026 239.209 28.7026C241.501 28.7026 243.343 30.5415 243.343 32.9236C243.343 33.394 243.269 33.8424 243.133 34.2588L243.09 34.3898Z" fill="#0C111D"/>
<rect x="315.574" y="20.5714" width="6.85714" height="6.85714" fill="#0C111D"/>
<rect opacity="0.6" x="315.574" y="27.4286" width="6.85714" height="6.85714" fill="#0C111D"/>
<rect opacity="0.32" x="322.426" y="27.4286" width="6.85714" height="6.85714" fill="#0C111D"/>
<rect opacity="0.07" x="329.285" y="27.4285" width="6.85714" height="6.85714" fill="#0C111D"/>
<rect opacity="0.32" x="308.715" y="27.4285" width="6.85714" height="6.85714" fill="#0C111D"/>
<rect opacity="0.07" x="301.857" y="27.4285" width="6.85714" height="6.85714" fill="#0C111D"/>
<rect opacity="0.32" x="315.574" y="34.2857" width="6.85714" height="6.85714" fill="#0C111D"/>
<rect opacity="0.07" x="308.715" y="34.2857" width="6.85714" height="6.85714" fill="#0C111D"/>
<rect opacity="0.07" x="322.426" y="34.2857" width="6.85714" height="6.85714" fill="#0C111D"/>
<rect opacity="0.07" x="315.574" y="41.1428" width="6.85714" height="6.85714" fill="#0C111D"/>
<rect opacity="0.6" x="308.715" y="20.5714" width="6.85714" height="6.85714" fill="#0C111D"/>
<rect opacity="0.32" x="301.857" y="20.5714" width="6.85714" height="6.85714" fill="#0C111D"/>
<rect opacity="0.07" x="295" y="20.5714" width="6.85714" height="6.85714" fill="#0C111D"/>
<rect opacity="0.6" x="322.426" y="20.5714" width="6.85714" height="6.85714" fill="#0C111D"/>
<rect opacity="0.32" x="329.285" y="20.5714" width="6.85714" height="6.85714" fill="#0C111D"/>
<rect opacity="0.07" x="336.143" y="20.5714" width="6.85714" height="6.85714" fill="#0C111D"/>
<rect opacity="0.6" x="315.574" y="13.7142" width="6.85714" height="6.85714" fill="#0C111D"/>
<rect opacity="0.32" x="308.715" y="13.7142" width="6.85714" height="6.85714" fill="#0C111D"/>
<rect opacity="0.07" x="308.715" y="6.85712" width="6.85714" height="6.85714" fill="#0C111D"/>
<rect opacity="0.07" x="301.857" y="13.7142" width="6.85714" height="6.85714" fill="#0C111D"/>
<rect opacity="0.32" x="322.426" y="13.7142" width="6.85714" height="6.85714" fill="#0C111D"/>
<rect opacity="0.07" x="322.426" y="6.85712" width="6.85714" height="6.85714" fill="#0C111D"/>
<rect opacity="0.07" x="329.285" y="13.7142" width="6.85714" height="6.85714" fill="#0C111D"/>
<rect opacity="0.32" x="315.574" y="6.85712" width="6.85714" height="6.85714" fill="#0C111D"/>
<rect opacity="0.07" x="315.574" width="6.85714" height="6.85714" fill="#0C111D"/>
<path d="M351 33V14.462H358.982C364.78 14.462 367.276 16.802 367.276 20.858C367.276 24.836 364.624 27.228 359.242 27.202H354.744V33H351ZM359.008 17.686H354.744V23.978H359.112C362.102 23.978 363.454 22.99 363.454 20.832C363.454 18.622 362.024 17.686 359.008 17.686Z" fill="#0C111D"/>
<path d="M372.848 33H368.948V18.05H372.848V33Z" fill="#0C111D"/>
<path d="M374.468 25.512C374.468 20.494 378.004 17.634 382.97 17.634C387.832 17.634 390.926 19.844 391.368 24.186V24.212H387.312V24.16C386.974 21.898 385.518 20.806 382.996 20.806C380.11 20.806 378.394 22.418 378.394 25.512V25.72C378.394 28.606 379.954 30.192 382.97 30.192C385.648 30.192 387 29.048 387.338 26.76V26.734H391.368V26.786C391.03 31.128 388.066 33.442 382.892 33.442C377.198 33.442 374.468 30.608 374.468 25.746V25.512Z" fill="#0C111D"/>
<path d="M394.817 21.378H391.385V18.05H395.155C395.155 18.05 395.181 14.566 395.155 14.02H398.379V18.05H403.293V21.378H398.379V25.824C398.379 26.942 398.483 27.748 398.613 28.294C398.925 29.334 399.835 29.568 401.733 29.568H403.293V33H400.745C396.039 33 394.817 31.284 394.817 26.474V21.378Z" fill="#0C111D"/>
<path d="M403.77 25.616C403.77 20.598 407.332 17.634 412.324 17.634C414.196 17.634 415.73 17.972 416.952 18.674C419.396 20.078 420.644 22.444 420.644 25.33V26.916H407.462C407.852 29.178 409.412 30.374 412.35 30.374C414.508 30.374 415.704 29.75 416.302 28.58H420.462C419.292 31.83 416.432 33.442 412.142 33.442C407.202 33.442 403.77 31.284 403.77 25.85V25.616ZM407.514 24.056H416.874C416.536 21.794 415.106 20.598 412.402 20.598C409.62 20.598 408.008 21.872 407.514 24.056Z" fill="#0C111D"/>
<path d="M426.094 33H422.272V13.084H426.094V33Z" fill="#0C111D"/>
<path d="M426.908 33L434.708 14.462H438.66L446.616 33H442.69L441 28.892H432.498L430.886 33H426.908ZM433.746 25.746H439.7L436.684 18.362L433.746 25.746Z" fill="#0C111D"/>
<path d="M451.251 17.842H447.169V14.462H458.921V17.842H454.865V29.464H458.921V33H447.169V29.464H451.251V17.842Z" fill="#0C111D"/>
<path d="M373.47 13.88C373.47 15.2662 372.346 16.39 370.96 16.39C369.574 16.39 368.45 15.2662 368.45 13.88C368.45 12.4938 369.574 11.37 370.96 11.37C372.346 11.37 373.47 12.4938 373.47 13.88Z" fill="#0C111D"/>
<path d="M512.331 18.6667V8H490.998V18.6667L512.331 18.6667Z" fill="#EAAA08"/>
<path d="M512.331 29.3332C506.44 29.3332 501.664 34.1089 501.664 39.9999L490.999 40.0003L490.999 39.725C491.146 28.1153 500.566 18.7403 512.194 18.667L522.998 18.6675V40.0008H512.331L512.331 29.3332Z" fill="#EAAA08"/>
<path d="M533 32.9999V13.3169H538.076V28.5179H546.959V32.9999H533Z" fill="#0C111D"/>
<path d="M555.361 33.2699C553.723 33.2699 552.355 32.9639 551.257 32.3519C550.159 31.7219 549.331 30.8399 548.773 29.7059C548.233 28.5719 547.963 27.2579 547.963 25.7639V25.4669C547.963 23.8829 548.26 22.5509 548.854 21.4709C549.448 20.3729 550.267 19.5359 551.311 18.9599C552.373 18.3839 553.588 18.0959 554.956 18.0959C556.486 18.0959 557.782 18.3839 558.844 18.9599C559.924 19.5179 560.743 20.3099 561.301 21.3359C561.859 22.3439 562.138 23.5319 562.138 24.8999V26.8979H552.796V27.5729C552.796 28.1849 553.021 28.6889 553.471 29.0849C553.921 29.4809 554.497 29.6789 555.199 29.6789C555.829 29.6789 556.342 29.5529 556.738 29.3009C557.134 29.0309 557.368 28.6799 557.44 28.2479H561.976C561.922 29.2379 561.607 30.1109 561.031 30.8669C560.455 31.6229 559.681 32.2169 558.709 32.6489C557.737 33.0629 556.621 33.2699 555.361 33.2699ZM552.796 23.8739V24.0089H557.44V23.8739C557.44 23.0999 557.224 22.5329 556.792 22.1729C556.36 21.7949 555.802 21.6059 555.118 21.6059C554.434 21.6059 553.876 21.8039 553.444 22.1999C553.012 22.5779 552.796 23.1359 552.796 23.8739Z" fill="#0C111D"/>
<path d="M568.779 33.2699C567.465 33.2699 566.394 32.9729 565.566 32.3789C564.756 31.7849 564.162 30.9479 563.784 29.8679C563.406 28.7699 563.217 27.5009 563.217 26.0609V25.3589C563.217 22.7849 563.721 20.9399 564.729 19.8239C565.737 18.6899 567.087 18.1229 568.779 18.1229C569.697 18.1229 570.525 18.3209 571.263 18.7169C572.019 19.0949 572.577 19.6529 572.937 20.3909H573.153L573.396 18.3659H577.905V32.9999H573.153V31.0019H572.937C572.577 31.7219 572.019 32.2799 571.263 32.6759C570.525 33.0719 569.697 33.2699 568.779 33.2699ZM570.723 29.4089C571.461 29.4089 572.046 29.1929 572.478 28.7609C572.91 28.3289 573.126 27.6989 573.126 26.8709V24.4949C573.126 23.6849 572.91 23.0639 572.478 22.6319C572.046 22.1819 571.461 21.9569 570.723 21.9569C569.949 21.9569 569.346 22.1819 568.914 22.6319C568.5 23.0819 568.293 23.7029 568.293 24.4949V26.9249C568.293 27.6989 568.5 28.3109 568.914 28.7609C569.346 29.1929 569.949 29.4089 570.723 29.4089Z" fill="#0C111D"/>
<path d="M580.706 37.5089V18.3659H585.215L585.485 20.3909H585.701C586.061 19.6529 586.61 19.0949 587.348 18.7169C588.104 18.3209 588.941 18.1229 589.859 18.1229C591.191 18.1229 592.262 18.4199 593.072 19.0139C593.882 19.6079 594.476 20.4539 594.854 21.5519C595.232 22.6319 595.421 23.9009 595.421 25.3589V26.0609C595.421 28.6169 594.917 30.4619 593.909 31.5959C592.901 32.7119 591.551 33.2699 589.859 33.2699C588.941 33.2699 588.104 33.0719 587.348 32.6759C586.61 32.2799 586.061 31.7219 585.701 31.0019H585.485V37.5089H580.706ZM587.915 29.4089C588.689 29.4089 589.283 29.1929 589.697 28.7609C590.129 28.3109 590.345 27.6989 590.345 26.9249V24.4949C590.345 23.7029 590.129 23.0819 589.697 22.6319C589.283 22.1819 588.689 21.9569 587.915 21.9569C587.195 21.9569 586.61 22.1819 586.16 22.6319C585.728 23.0639 585.512 23.6849 585.512 24.4949V26.8709C585.512 27.6989 585.728 28.3289 586.16 28.7609C586.61 29.1929 587.195 29.4089 587.915 29.4089Z" fill="#0C111D"/>
<path d="M595.944 37.5089V33.7829H601.02V31.4069L595.269 18.3659H600.237L602.829 25.7639L603.261 27.1679H603.396L603.828 25.7639L606.528 18.3659H611.469L605.772 31.4069V34.5659C605.772 35.5559 605.484 36.2939 604.908 36.7799C604.35 37.2659 603.603 37.5089 602.667 37.5089H595.944Z" fill="#0C111D"/>
<path d="M618.539 33.2699C616.901 33.2699 615.533 32.9639 614.435 32.3519C613.337 31.7219 612.509 30.8399 611.951 29.7059C611.411 28.5719 611.141 27.2579 611.141 25.7639V25.4669C611.141 23.8829 611.438 22.5509 612.032 21.4709C612.626 20.3729 613.445 19.5359 614.489 18.9599C615.551 18.3839 616.766 18.0959 618.134 18.0959C619.664 18.0959 620.96 18.3839 622.022 18.9599C623.102 19.5179 623.921 20.3099 624.479 21.3359C625.037 22.3439 625.316 23.5319 625.316 24.8999V26.8979H615.974V27.5729C615.974 28.1849 616.199 28.6889 616.649 29.0849C617.099 29.4809 617.675 29.6789 618.377 29.6789C619.007 29.6789 619.52 29.5529 619.916 29.3009C620.312 29.0309 620.546 28.6799 620.618 28.2479H625.154C625.1 29.2379 624.785 30.1109 624.209 30.8669C623.633 31.6229 622.859 32.2169 621.887 32.6489C620.915 33.0629 619.799 33.2699 618.539 33.2699ZM615.974 23.8739V24.0089H620.618V23.8739C620.618 23.0999 620.402 22.5329 619.97 22.1729C619.538 21.7949 618.98 21.6059 618.296 21.6059C617.612 21.6059 617.054 21.8039 616.622 22.1999C616.19 22.5779 615.974 23.1359 615.974 23.8739Z" fill="#0C111D"/>
<path d="M631.957 33.2699C630.643 33.2699 629.572 32.9729 628.744 32.3789C627.934 31.7849 627.34 30.9479 626.962 29.8679C626.584 28.7699 626.395 27.5009 626.395 26.0609V25.3589C626.395 22.7849 626.899 20.9399 627.907 19.8239C628.915 18.6899 630.265 18.1229 631.957 18.1229C632.875 18.1229 633.703 18.3209 634.441 18.7169C635.197 19.0949 635.755 19.6529 636.115 20.3909H636.331L636.574 18.3659H641.083V32.9999H636.331V31.0019H636.115C635.755 31.7219 635.197 32.2799 634.441 32.6759C633.703 33.0719 632.875 33.2699 631.957 33.2699ZM633.901 29.4089C634.639 29.4089 635.224 29.1929 635.656 28.7609C636.088 28.3289 636.304 27.6989 636.304 26.8709V24.4949C636.304 23.6849 636.088 23.0639 635.656 22.6319C635.224 22.1819 634.639 21.9569 633.901 21.9569C633.127 21.9569 632.524 22.1819 632.092 22.6319C631.678 23.0819 631.471 23.7029 631.471 24.4949V26.9249C631.471 27.6989 631.678 28.3109 632.092 28.7609C632.524 29.1929 633.127 29.4089 633.901 29.4089Z" fill="#0C111D"/>
<path d="M643.884 32.9999V21.9569C643.884 20.8769 644.208 20.0129 644.856 19.3649C645.522 18.6989 646.386 18.3659 647.448 18.3659H653.388V22.1999H648.663V32.9999H643.884Z" fill="#0C111D"/>
<path d="M716.8 10.7998H686L690.4 19.5997H716.8C721.66 19.5997 725.6 23.5396 725.6 28.3997C725.6 33.2598 721.66 37.1996 716.8 37.1996C724.09 37.1996 730 31.2898 730 23.9997C730 16.7096 724.09 10.7998 716.8 10.7998Z" fill="#099250"/>
<path opacity="0.3" d="M706.783 34.7676C705.321 31.8421 707.448 28.3999 710.719 28.3999H716.8C719.23 28.3999 721.2 30.3698 721.2 32.7999C721.2 35.2299 719.23 37.1998 716.8 37.1998H710.719C709.052 37.1998 707.529 36.2582 706.783 34.7676Z" fill="#099250"/>
<path opacity="0.6" d="M716.801 19.6001H694.801L699.201 28.4H716.801C719.231 28.4 721.201 30.37 721.201 32.8C721.201 35.2301 719.231 37.2 716.801 37.2C721.661 37.2 725.601 33.2601 725.601 28.4C725.601 23.54 721.661 19.6001 716.801 19.6001Z" fill="#099250"/>
<path d="M829.18 17.376C828.209 17.376 827.5 17.1987 827.052 16.844C826.622 16.4707 826.408 15.892 826.408 15.108C826.408 14.3053 826.622 13.7267 827.052 13.372C827.5 12.9987 828.209 12.812 829.18 12.812C830.132 12.812 830.832 12.9987 831.28 13.372C831.728 13.7267 831.952 14.3053 831.952 15.108C831.952 15.892 831.728 16.4707 831.28 16.844C830.832 17.1987 830.132 17.376 829.18 17.376Z" fill="#0C111D"/>
<path fill-rule="evenodd" clip-rule="evenodd" d="M752.348 15.248C751.284 14.7627 749.996 14.52 748.484 14.52H740V33H744.816V26.84H748.484C749.996 26.84 751.284 26.5973 752.348 26.112C753.412 25.6267 754.224 24.9267 754.784 24.012C755.344 23.0973 755.624 21.9867 755.624 20.68C755.624 19.3733 755.344 18.2627 754.784 17.348C754.224 16.4333 753.412 15.7333 752.348 15.248ZM749.996 22.612C749.492 23.0227 748.736 23.228 747.728 23.228H744.816V18.132H747.728C748.736 18.132 749.492 18.3467 749.996 18.776C750.519 19.1867 750.78 19.8213 750.78 20.68C750.78 21.5387 750.519 22.1827 749.996 22.612Z" fill="#0C111D"/>
<path fill-rule="evenodd" clip-rule="evenodd" d="M759.89 32.412C761.028 32.9907 762.372 33.28 763.922 33.28C764.892 33.28 765.816 33.14 766.694 32.86C767.59 32.58 768.355 32.1693 768.99 31.628C769.643 31.068 770.1 30.3867 770.362 29.584L766.554 28.324C766.348 28.828 766.031 29.22 765.602 29.5C765.191 29.78 764.631 29.92 763.922 29.92C763.287 29.92 762.746 29.7987 762.298 29.556C761.85 29.2947 761.504 28.884 761.262 28.324C761.127 28.0025 761.029 27.6292 760.97 27.204H770.53C770.567 26.98 770.595 26.7 770.614 26.364C770.632 26.028 770.642 25.692 770.642 25.356C770.642 24.068 770.371 22.9293 769.83 21.94C769.288 20.932 768.495 20.148 767.45 19.588C766.423 19.0093 765.172 18.72 763.698 18.72C762.26 18.72 760.982 19.0093 759.862 19.588C758.76 20.1667 757.902 20.9973 757.286 22.08C756.67 23.1627 756.362 24.4693 756.362 26C756.362 27.5307 756.67 28.8373 757.286 29.92C757.902 31.0027 758.77 31.8333 759.89 32.412ZM760.997 24.656C761.047 24.3353 761.117 24.046 761.206 23.788C761.43 23.1907 761.747 22.752 762.158 22.472C762.587 22.192 763.1 22.052 763.698 22.052C764.538 22.052 765.154 22.3507 765.546 22.948C765.843 23.3804 766.033 23.9497 766.115 24.656H760.997Z" fill="#0C111D"/>
<path d="M777.644 24.152C777.364 24.6187 777.224 25.216 777.224 25.944V33H772.464V19H776.664L776.86 22.024C777.215 20.9787 777.738 20.1667 778.428 19.588C779.138 19.0093 780.034 18.72 781.116 18.72C781.471 18.72 781.77 18.748 782.012 18.804C782.274 18.86 782.479 18.9347 782.628 19.028L782.152 22.948C781.966 22.8733 781.723 22.8173 781.424 22.78C781.144 22.724 780.799 22.696 780.388 22.696C779.828 22.696 779.306 22.8173 778.82 23.06C778.335 23.3027 777.943 23.6667 777.644 24.152Z" fill="#0C111D"/>
<path fill-rule="evenodd" clip-rule="evenodd" d="M786.292 32.412C787.43 32.9907 788.774 33.28 790.324 33.28C791.294 33.28 792.218 33.14 793.096 32.86C793.992 32.58 794.757 32.1693 795.392 31.628C796.045 31.068 796.502 30.3867 796.764 29.584L792.956 28.324C792.75 28.828 792.433 29.22 792.004 29.5C791.593 29.78 791.033 29.92 790.324 29.92C789.689 29.92 789.148 29.7987 788.7 29.556C788.252 29.2947 787.906 28.884 787.664 28.324C787.529 28.0025 787.431 27.6292 787.372 27.204H796.932C796.969 26.98 796.997 26.7 797.016 26.364C797.034 26.028 797.044 25.692 797.044 25.356C797.044 24.068 796.773 22.9293 796.232 21.94C795.69 20.932 794.897 20.148 793.852 19.588C792.825 19.0093 791.574 18.72 790.1 18.72C788.662 18.72 787.384 19.0093 786.264 19.588C785.162 20.1667 784.304 20.9973 783.688 22.08C783.072 23.1627 782.764 24.4693 782.764 26C782.764 27.5307 783.072 28.8373 783.688 29.92C784.304 31.0027 785.172 31.8333 786.292 32.412ZM787.399 24.656C787.449 24.3353 787.519 24.046 787.608 23.788C787.832 23.1907 788.149 22.752 788.56 22.472C788.989 22.192 789.502 22.052 790.1 22.052C790.94 22.052 791.556 22.3507 791.948 22.948C792.245 23.3804 792.435 23.9497 792.517 24.656H787.399Z" fill="#0C111D"/>
<path fill-rule="evenodd" clip-rule="evenodd" d="M805.447 39.02C804.233 39.02 803.122 38.8707 802.114 38.572C801.106 38.292 800.266 37.788 799.594 37.06C798.941 36.3507 798.521 35.352 798.334 34.064L802.926 33.476C803.001 34.2973 803.262 34.9227 803.71 35.352C804.177 35.8 804.849 36.024 805.727 36.024C806.548 36.024 807.173 35.7627 807.603 35.24C808.05 34.7173 808.274 33.98 808.274 33.028V30.312C807.864 31.0027 807.294 31.5627 806.566 31.992C805.857 32.4027 805.017 32.608 804.047 32.608C802.871 32.608 801.844 32.3373 800.966 31.796C800.108 31.2547 799.445 30.4707 798.979 29.444C798.512 28.3987 798.278 27.1573 798.278 25.72C798.278 24.2453 798.53 22.9853 799.035 21.94C799.539 20.8947 800.22 20.1013 801.078 19.56C801.956 19 802.945 18.72 804.047 18.72C805.279 18.72 806.277 19.028 807.043 19.644C807.808 20.2413 808.349 21.0253 808.666 21.996L808.779 19H813.062V31.88C813.062 33.616 812.754 34.9973 812.138 36.024C811.522 37.0693 810.645 37.8253 809.507 38.292C808.368 38.7773 807.015 39.02 805.447 39.02ZM805.699 29.136C806.482 29.136 807.108 28.8467 807.575 28.268C808.041 27.6893 808.274 26.8213 808.274 25.664C808.274 24.544 808.05 23.6947 807.603 23.116C807.155 22.5187 806.52 22.22 805.699 22.22C805.157 22.22 804.69 22.3507 804.299 22.612C803.906 22.8733 803.598 23.256 803.375 23.76C803.169 24.264 803.066 24.8987 803.066 25.664C803.066 26.8587 803.3 27.736 803.766 28.296C804.233 28.856 804.877 29.136 805.699 29.136Z" fill="#0C111D"/>
<path d="M820.005 22.024L819.809 19H815.609V33H820.369V25.944C820.369 25.216 820.509 24.6187 820.789 24.152C821.087 23.6667 821.479 23.3027 821.965 23.06C822.45 22.8173 822.973 22.696 823.533 22.696C823.943 22.696 824.289 22.724 824.569 22.78C824.867 22.8173 825.11 22.8733 825.297 22.948L825.773 19.028C825.623 18.9347 825.418 18.86 825.157 18.804C824.914 18.748 824.615 18.72 824.261 18.72C823.178 18.72 822.282 19.0093 821.573 19.588C820.882 20.1667 820.359 20.9787 820.005 22.024Z" fill="#0C111D"/>
<path d="M845.812 19.28C845.103 18.9067 844.263 18.72 843.292 18.72C842.21 18.72 841.258 18.972 840.436 19.476C839.615 19.9613 838.971 20.6987 838.504 21.688L838.496 21.7064L838.364 19H834.108V33H838.868V25.608C838.868 24.8427 838.98 24.2173 839.204 23.732C839.428 23.2467 839.736 22.9013 840.128 22.696C840.52 22.472 840.94 22.36 841.388 22.36C841.986 22.36 842.462 22.5467 842.816 22.92C843.19 23.2933 843.376 23.984 843.376 24.992V31.964C843.376 32.8227 843.554 33.5413 843.908 34.12C844.263 34.6987 844.748 35.128 845.364 35.408C845.999 35.7067 846.718 35.856 847.52 35.856C848.174 35.856 848.687 35.8 849.06 35.688C849.452 35.5947 849.882 35.436 850.348 35.212L850.684 32.356C850.46 32.468 850.246 32.5427 850.04 32.58C849.854 32.6173 849.62 32.636 849.34 32.636C849.004 32.636 848.715 32.5427 848.472 32.356C848.248 32.1507 848.136 31.8147 848.136 31.348V23.676C848.136 22.5747 847.931 21.66 847.52 20.932C847.11 20.204 846.54 19.6533 845.812 19.28Z" fill="#0C111D"/>
<path d="M831.56 19V33H826.8V19H831.56Z" fill="#0C111D"/>
<path d="M915 26C915 31.5228 910.523 36 905 36C899.477 36 895 31.5228 895 26H887C887 35.9411 895.059 44 905 44C914.941 44 923 35.9411 923 26C923 16.0589 914.941 8 905 8V16C910.523 16 915 20.4772 915 26Z" fill="#004EEB"/>
<path opacity="0.5" d="M893 4C893 9.52285 888.523 14 883 14V22C892.941 22 901 13.9411 901 4H893Z" fill="#004EEB"/>
<path d="M933 13.83H946.77V17.691H937.725V21.471H946.446V25.305H937.725V29.139H946.986V33H933V13.83Z" fill="#0C111D"/>
<path d="M948.253 23.199C948.793 20.04 951.169 18.366 955.165 18.366C959.755 18.366 962.023 20.472 962.023 24.657V28.734C962.023 29.787 962.455 29.949 962.941 29.949H963.427V33L962.779 33.054C962.023 33.081 958.729 33.594 958.243 30.84C957.487 32.379 955.867 33.324 953.14 33.324C950.224 33.324 948.01 31.758 948.01 29.22C948.01 26.655 949.927 25.575 953.464 24.873L957.298 24.09C957.298 22.119 956.623 21.201 955.138 21.201C953.896 21.201 953.14 21.93 952.897 23.388L948.253 23.199ZM952.789 29.031C952.789 29.868 953.464 30.462 954.733 30.462C956.299 30.462 957.379 29.274 957.379 26.925V26.79L955.354 27.168C953.815 27.438 952.789 27.762 952.789 29.031Z" fill="#0C111D"/>
<path d="M973.147 23.415C972.931 22.146 971.932 21.39 970.852 21.39C969.718 21.39 968.908 21.984 968.962 22.929C969.016 23.847 970.042 24.279 971.311 24.495C975.874 25.17 977.818 26.331 977.818 29.004C977.818 31.866 975.172 33.324 971.23 33.324C966.775 33.324 964.075 31.515 963.832 28.437L968.503 28.248C968.746 29.517 969.637 30.219 971.068 30.219C972.04 30.219 973.093 29.841 973.039 28.95C973.012 27.897 971.878 27.627 970.555 27.384C966.154 26.574 964.183 25.494 964.183 22.929C964.183 20.04 966.613 18.339 970.987 18.339C974.821 18.339 977.305 20.148 977.764 23.253L973.147 23.415Z" fill="#0C111D"/>
<path d="M977.508 18.69H981.828L985.176 28.167L988.362 18.69H992.682L987.12 34.215C986.418 36.186 985.095 37.05 982.881 37.05H980.073V33.756H981.936C982.854 33.756 983.313 33.513 983.583 32.838L983.88 32.109H982.638L977.508 18.69Z" fill="#0C111D"/>
<path d="M1008.69 13.83V17.691H1003.02V33H998.318V17.691H992.648V13.83H1008.69Z" fill="#0C111D"/>
<path d="M1008.8 23.199C1009.34 20.04 1011.71 18.366 1015.71 18.366C1020.3 18.366 1022.57 20.472 1022.57 24.657V28.734C1022.57 29.787 1023 29.949 1023.48 29.949H1023.97V33L1023.32 33.054C1022.57 33.081 1019.27 33.594 1018.79 30.84C1018.03 32.379 1016.41 33.324 1013.68 33.324C1010.77 33.324 1008.55 31.758 1008.55 29.22C1008.55 26.655 1010.47 25.575 1014.01 24.873L1017.84 24.09C1017.84 22.119 1017.17 21.201 1015.68 21.201C1014.44 21.201 1013.68 21.93 1013.44 23.388L1008.8 23.199ZM1013.33 29.031C1013.33 29.868 1014.01 30.462 1015.28 30.462C1016.84 30.462 1017.92 29.274 1017.92 26.925V26.79L1015.9 27.168C1014.36 27.438 1013.33 27.762 1013.33 29.031Z" fill="#0C111D"/>
<path d="M1035.36 18.663H1040.38L1035.33 25.737L1040.52 33H1035.49L1032.69 28.626L1029.85 33H1024.83L1030.01 25.737L1024.96 18.663H1029.96L1032.69 22.821L1035.36 18.663Z" fill="#0C111D"/>
</svg>
